<svg width="189" height="62" fill="none" xmlns="http://www.w3.org/2000/svg"><path d="M39.849 45.741c-7.32 0-13.012 3.458-13.012 7.903 0 4.445 5.693 7.902 13.012 7.902 7.32 0 13.012-3.457 13.012-7.902s-5.693-7.903-13.012-7.903zM117.107.796h-6.506v9.631h24.398L117.107.796zM.813 55.126h16.265s.813-14.818 24.397-14.818c17.485 0 20.331 14.817 20.331 14.817h40.663V.796H0l.813 54.33zm153.703-9.385c-7.319 0-13.011 3.458-13.011 7.903 0 4.445 5.692 7.902 13.011 7.902 7.32 0 13.012-3.457 13.012-7.902s-6.099-7.903-13.012-7.903zm-15.451-32.597h-28.464v41.981h24.398s-3.253-12.347 20.331-12.347c17.891 0 17.484 12.347 17.484 12.347h15.046l.813-18.521-49.608-23.46zm-4.066 32.103h-16.265v-4.939h16.265v4.94zm-1.627-8.89l-16.265-5.927V16.6h16.265l42.289 19.757h-42.289z" fill="#fff" fill-opacity=".4"/></svg>