<svg width="140" height="140" fill="none" xmlns="http://www.w3.org/2000/svg"><g clip-path="url(#clip0)" fill="#fff" fill-opacity=".4"><path d="M122.909 16.729H17.119C7.677 16.729 0 24.405 0 33.849v72.302c0 9.444 7.676 17.12 17.12 17.12h105.76c9.444 0 17.12-7.676 17.12-17.12V33.878c.029-9.444-7.647-17.15-17.091-17.15zm9.299 89.422c0 5.128-4.172 9.299-9.299 9.299H17.119c-5.126 0-9.298-4.171-9.298-9.299V33.878c0-5.128 4.172-9.299 9.299-9.299h105.76c5.127 0 9.299 4.171 9.299 9.298v72.274h.029z"/><path d="M88.293 69.102l34.24-30.706a3.93 3.93 0 00.289-5.532 3.93 3.93 0 00-5.533-.29l-47.217 42.38-9.211-8.227c-.03-.03-.058-.058-.058-.087a5.786 5.786 0 00-.637-.55L22.681 32.544a3.905 3.905 0 00-5.533.319 3.905 3.905 0 00.318 5.533l34.646 30.966-34.5 32.299a3.925 3.925 0 00-.174 5.532 4.002 4.002 0 002.867 1.246 3.92 3.92 0 002.665-1.043l35.022-32.762 9.501 8.487a3.906 3.906 0 005.215-.029l9.761-8.748 34.819 33.081a3.89 3.89 0 002.694 1.072 3.907 3.907 0 002.839-1.217c1.478-1.564 1.42-4.055-.145-5.533L88.293 69.102z"/></g><defs><clipPath id="clip0"><path fill="#fff" d="M0 0h140v140H0z"/></clipPath></defs></svg>