<svg width="80" height="80" fill="none" xmlns="http://www.w3.org/2000/svg"><g clip-path="url(#clip0)"><path d="M57.22 25.373L46.687 35.906l4.079 4.079L61.299 29.45l-4.079-4.078zM35.91 46.706L25.375 57.24l4.078 4.078 10.534-10.533-4.079-4.078zm14.607-28L39.984 29.239l4.078 4.078 10.534-10.533-4.079-4.078zM29.235 40.01L18.703 50.545l4.079 4.078L33.315 44.09l-4.079-4.078zm-6.477-14.637l-4.079 4.078 10.533 10.533 4.079-4.078-10.533-10.533zm6.696-6.674l-4.078 4.078L35.909 33.31l4.078-4.078L29.454 18.7zM50.76 39.98l-4.08 4.08 10.534 10.532 4.078-4.078L50.76 39.981zm-6.668 6.704l-4.078 4.078 10.533 10.533 4.078-4.078-10.533-10.533z" fill="#66C05D"/><path d="M54.606 65.394l-4.067-4.066L40 71.868l-10.54-10.54-4.066 4.066L40 80l14.606-14.606zM18.672 29.46l-4.066-4.066L0 40l14.606 14.606 4.066-4.067L8.132 40l10.54-10.54zm46.722-4.066l-4.066 4.067L71.868 40l-10.54 10.54 4.066 4.066L80 40 65.394 25.394zM50.54 18.672l4.066-4.066L40 0 25.394 14.606l4.067 4.066L40 8.132l10.54 10.54z" fill="#EFEFEF"/></g><defs><clipPath id="clip0"><path fill="#fff" d="M0 0h80v80H0z"/></clipPath></defs></svg>