<svg width="45" height="45" fill="none" xmlns="http://www.w3.org/2000/svg"><circle cx="22.5" cy="22.5" r="21.5" fill="#fff" stroke="#66C05D" stroke-width="2"/><path d="M27 13.004L24.405 13c-2.914 0-4.797 1.932-4.797 4.922v2.27H17a.408.408 0 00-.407.407v3.288c0 .226.182.408.407.408h2.608v8.297c0 .226.182.408.408.408h3.402a.408.408 0 00.408-.408v-8.297h3.049a.408.408 0 00.408-.408l.001-3.288a.409.409 0 00-.408-.408h-3.05v-1.923c0-.925.22-1.394 1.425-1.394l1.747-.001a.408.408 0 00.408-.408v-3.053a.408.408 0 00-.408-.408z" fill="#66C05D"/></svg>