<svg width="45" height="45" fill="none" xmlns="http://www.w3.org/2000/svg"><circle cx="22.5" cy="22.5" r="21.5" fill="#fff" stroke="#66C05D" stroke-width="2"/><path d="M26.125 12h-8.25A6.876 6.876 0 0011 18.875v8.25A6.876 6.876 0 0017.875 34h8.25A6.876 6.876 0 0033 27.125v-8.25A6.876 6.876 0 0026.125 12zm4.813 15.125a4.818 4.818 0 01-4.813 4.813h-8.25a4.818 4.818 0 01-4.813-4.813v-8.25a4.818 4.818 0 014.813-4.813h8.25a4.818 4.818 0 014.813 4.813v8.25z" fill="#66C05D"/><path d="M22 17.5a5.5 5.5 0 100 11 5.5 5.5 0 000-11zm0 8.938A3.442 3.442 0 0118.562 23 3.441 3.441 0 0122 19.562 3.441 3.441 0 0125.438 23 3.442 3.442 0 0122 26.438zm5.913-8.618a.733.733 0 100-1.465.733.733 0 000 1.465z" fill="#66C05D"/></svg>