<svg width="45" height="45" fill="none" xmlns="http://www.w3.org/2000/svg"><circle cx="22.5" cy="22.5" r="21.5" fill="#fff" stroke="#66C05D" stroke-width="2"/><path d="M35.895 28.547a1.776 1.776 0 00-.095-.172c-.487-.821-1.417-1.83-2.79-3.025l-.028-.027-.015-.014-.014-.013h-.015c-.623-.557-1.017-.931-1.183-1.123-.302-.365-.37-.735-.204-1.109.116-.283.555-.88 1.314-1.793.399-.484.715-.871.949-1.163 1.684-2.1 2.414-3.44 2.19-4.025l-.087-.136c-.059-.082-.21-.158-.452-.226-.244-.069-.555-.08-.935-.034l-4.205.027a.58.58 0 00-.292.007l-.19.041-.073.034-.058.041a.637.637 0 00-.161.144.926.926 0 00-.146.24 21.765 21.765 0 01-1.562 3.08c-.36.565-.691 1.056-.993 1.47-.302.416-.555.722-.76.918a5.27 5.27 0 01-.554.472c-.166.119-.292.17-.38.15l-.248-.054a.936.936 0 01-.329-.335 1.432 1.432 0 01-.168-.534 5.54 5.54 0 01-.05-.555 10.89 10.89 0 01.007-.657c.01-.283.014-.474.014-.575 0-.346.008-.723.022-1.129l.037-.965c.01-.237.014-.488.014-.753s-.017-.472-.05-.623a2.033 2.033 0 00-.154-.438.754.754 0 00-.3-.328 1.753 1.753 0 00-.488-.185c-.516-.11-1.173-.169-1.972-.178-1.81-.018-2.973.091-3.49.329-.204.1-.389.237-.554.41-.175.2-.2.31-.073.329.584.082.998.278 1.24.588l.089.165c.068.118.136.328.204.63.068.3.112.633.131.998a9.988 9.988 0 010 1.711 18.75 18.75 0 01-.138 1.11 2.13 2.13 0 01-.197.642 2.67 2.67 0 01-.176.301.244.244 0 01-.073.069 1.157 1.157 0 01-.394.069c-.136 0-.302-.064-.496-.192a3.432 3.432 0 01-.606-.527 7.08 7.08 0 01-.708-.938 16.059 16.059 0 01-.818-1.424l-.234-.396a33.36 33.36 0 01-.598-1.116 20.95 20.95 0 01-.672-1.417.911.911 0 00-.35-.438l-.073-.041a1.026 1.026 0 00-.234-.117 1.633 1.633 0 00-.336-.088l-4 .027c-.41 0-.687.087-.833.26l-.058.082a.42.42 0 00-.044.22c0 .1.03.223.088.369a44.014 44.014 0 001.905 3.723c.686 1.195 1.282 2.159 1.788 2.888.507.73 1.023 1.42 1.548 2.067a31.7 31.7 0 001.044 1.246c.17.183.305.32.402.41l.365.329c.233.219.577.481 1.03.787.452.306.953.607 1.503.904.55.296 1.19.538 1.92.725.73.187 1.44.262 2.132.226h1.68c.34-.028.598-.128.773-.301l.058-.069a.88.88 0 00.11-.253 1.31 1.31 0 00.05-.376c-.01-.393.023-.746.095-1.061.073-.315.156-.552.249-.712.093-.16.197-.294.314-.403.116-.11.2-.176.248-.199a1.18 1.18 0 01.117-.048c.233-.073.508-.002.825.212.316.215.613.48.89.794.278.315.611.669 1 1.061.39.393.73.684 1.023.876l.292.165c.195.11.448.21.76.3.31.092.583.115.817.07l3.738-.055c.37 0 .657-.058.86-.172.205-.114.327-.24.366-.376a.997.997 0 00.007-.466 1.633 1.633 0 00-.102-.362z" fill="#66C05D"/></svg>